# xmcd CD database file
# Copyright (C) 1993-1996 Ti Kan
#
# Track frame offsets:
#	150
#	14322
#	26752
#	37915
#	50065
#	63697
#	74077
#	86710
#	97812
#	117472
#	129117
#	139135
#	153657
#	169597
#	181907
#	199375
#	212302
#	224952
#
# Disc length: 3384 seconds
#
# Revision: 1
# Processed by: cddbd v1.4b41PL1 Copyright (c) Steve Scherf et al.
# Submitted via: xmcd 2.0
#
DISCID=0f0d3612
DTITLE=Koko Taylor - What it Takes
DYEAR=1900
DGENRE=
TTITLE0=I Got What It Takes
TTITLE1=Don't Mess With the Messer
TTITLE2=Watever I Am, You Made Me
TTITLE3=I'm A Little Mixed Up
TTITLE4=Wang Dang Doodle
TTITLE5=(I Got) All You Need
TTITLE6=Love Me
TTITLE7=What Came First the Egg or the Hen
TTITLE8=Insane Asylum
TTITLE9=Fire
TTITLE10=I Don't Care Who Knows
TTITLE11=Tenty Nine Ways (To My Baby's Door)
TTITLE12=Blue Prelude
TTITLE13=I Need More and More
TTITLE14=Um Huh My Baby
TTITLE15=Bills, Bills and More Bills
TTITLE16=Let Me Love You Baby
TTITLE17=I Got What It Takes
EXTD=
EXTT0=
EXTT1=
EXTT2=
EXTT3=
EXTT4=
EXTT5=
EXTT6=
EXTT7=
EXTT8=
EXTT9=
EXTT10=
EXTT11=
EXTT12=
EXTT13=
EXTT14=
EXTT15=
EXTT16=
EXTT17=
PLAYORDER=
